<svg width="48" height="48" viewBox="0 0 48 48" fill="none" xmlns="http://www.w3.org/2000/svg">
<g opacity="0.5">
<path d="M4.02 13.747C4.1464 12.1815 4.85756 10.721 6.01198 9.65609C7.16639 8.59118 8.67942 7.99993 10.25 8H37.75C39.3346 7.99993 40.8601 8.60176 42.0178 9.68373C43.1755 10.7657 43.879 12.247 43.986 13.828L24.002 24.35L4.02 13.747ZM4 16.567V33.75C4 35.4076 4.65848 36.9973 5.83058 38.1694C7.00269 39.3415 8.5924 40 10.25 40H37.75C39.4076 40 40.9973 39.3415 42.1694 38.1694C43.3415 36.9973 44 35.4076 44 33.75V16.646L24.582 26.87C24.4019 26.9648 24.2013 27.0142 23.9978 27.0138C23.7942 27.0135 23.5938 26.9634 23.414 26.868L4 16.567Z" fill="white"/>
</g>
</svg>
