<svg width="32" height="32" fill="none" xmlns="http://www.w3.org/2000/svg"><path d="M25.694 7.107A22.643 22.643 0 0020 5.333a.12.12 0 00-.093.04c-.24.44-.52 1.014-.706 1.454a21.453 21.453 0 00-6.4 0 13.378 13.378 0 00-.72-1.454c-.014-.026-.054-.04-.094-.04-2 .347-3.907.947-5.693 1.774-.014 0-.027.013-.04.026C2.627 12.56 1.627 17.84 2.12 23.067c0 .026.014.053.04.066 2.4 1.76 4.707 2.827 6.987 3.534.04.013.08 0 .093-.027a17.186 17.186 0 001.427-2.32c.027-.053 0-.107-.053-.12-.76-.293-1.48-.64-2.187-1.04-.053-.027-.053-.107-.013-.147.146-.106.293-.226.44-.333a.082.082 0 01.093-.013c4.587 2.093 9.534 2.093 14.067 0a.082.082 0 01.093.013c.147.12.294.227.44.347.053.04.053.12-.013.146a14.29 14.29 0 01-2.187 1.04c-.053.014-.067.08-.053.12.427.814.907 1.587 1.427 2.32.04.014.08.027.12.014 2.293-.707 4.6-1.774 7-3.534a.073.073 0 00.04-.066c.586-6.04-.974-11.28-4.134-15.934-.013-.013-.026-.026-.053-.026zM11.36 19.88c-1.374 0-2.52-1.267-2.52-2.827s1.12-2.826 2.52-2.826c1.413 0 2.533 1.28 2.52 2.826 0 1.56-1.12 2.827-2.52 2.827zm9.293 0c-1.373 0-2.52-1.267-2.52-2.827s1.12-2.826 2.52-2.826c1.413 0 2.533 1.28 2.52 2.826 0 1.56-1.107 2.827-2.52 2.827z" fill="#f0f0f0" opacity=".5"/></svg>