<svg width="32" height="32" fill="none" xmlns="http://www.w3.org/2000/svg"><path d="M16 2.667C8.64 2.667 2.667 8.64 2.667 16S8.64 29.333 16 29.333 29.334 23.36 29.334 16 23.36 2.667 16 2.667zm6.187 9.066c-.2 2.107-1.067 7.227-1.507 9.587-.186 1-.56 1.333-.906 1.373-.774.067-1.36-.506-2.107-1-1.173-.773-1.84-1.253-2.973-2-1.32-.866-.467-1.346.293-2.12.2-.2 3.613-3.306 3.68-3.586a.266.266 0 00-.067-.24c-.08-.067-.186-.04-.28-.027-.12.027-1.986 1.267-5.626 3.72-.534.36-1.014.547-1.44.533-.48-.013-1.387-.266-2.067-.493-.84-.267-1.493-.413-1.44-.88.027-.24.36-.48.987-.733 3.893-1.694 6.48-2.814 7.773-3.347 3.707-1.547 4.467-1.813 4.973-1.813.107 0 .36.026.52.16a.53.53 0 01.187.36c-.013.08.013.32 0 .506z" fill="#f0f0f0" opacity=".5"/></svg>