<svg width="64" height="64" viewBox="0 0 64 64" fill="none" xmlns="http://www.w3.org/2000/svg">
<circle cx="32" cy="32" r="32" fill="#101112"/>
<path d="M49.711 32.2051C51.0318 32.2051 52.1173 31.1305 51.959 29.8192C51.51 26.1015 50.0181 22.5681 47.6328 19.6395C44.7417 16.0899 40.7151 13.6458 36.2318 12.7193C31.7486 11.7929 27.083 12.4407 23.0217 14.5536C18.9605 16.6665 15.7521 20.1152 13.9375 24.3182C12.1229 28.5211 11.8131 33.2213 13.0603 37.6261C14.3076 42.0309 17.0356 45.8709 20.7844 48.4985C24.5332 51.1262 29.0734 52.3807 33.6395 52.0507C37.4068 51.7784 41.0015 50.4412 44.0152 48.2184C45.0782 47.4345 45.1159 45.9075 44.2101 44.9462C43.3044 43.9849 41.7993 43.9585 40.7073 44.7015C38.5182 46.1909 35.9634 47.0873 33.2947 47.2802C29.8262 47.5309 26.3774 46.5779 23.5297 44.5819C20.6821 42.5859 18.6098 39.669 17.6623 36.323C16.7149 32.977 16.9502 29.4067 18.3286 26.214C19.707 23.0213 22.1442 20.4016 25.2292 18.7966C28.3142 17.1916 31.8583 16.6995 35.2639 17.4033C38.6694 18.1071 41.7282 19.9637 43.9243 22.66C45.614 24.7346 46.7136 27.2088 47.1308 29.8235C47.3389 31.1277 48.3903 32.2051 49.711 32.2051Z" fill="#F0F0F0"/>
<ellipse cx="48.4098" cy="38.9742" rx="2.46154" ry="2.46154" fill="#F0F0F0"/>
</svg>
