<svg xmlns="http://www.w3.org/2000/svg" version="1.1" xmlns:xlink="http://www.w3.org/1999/xlink" xmlns:svgjs="http://svgjs.com/svgjs" width="156" height="156"><svg width="156" height="156" viewBox="0 0 156 156" fill="none" xmlns="http://www.w3.org/2000/svg">
<circle cx="78" cy="78" r="78" fill="#101112"></circle>
<path d="M121.171 78.5C124.39 78.5 127.036 75.8807 126.65 72.6846C125.556 63.6225 121.919 55.01 116.105 47.8715C109.058 39.2193 99.2432 33.2619 88.3153 31.0036C77.3873 28.7453 66.0149 30.3244 56.1157 35.4745C46.2164 40.6247 38.3959 49.0309 33.9728 59.2757C29.5496 69.5205 28.7945 80.9771 31.8348 91.7138C34.875 102.451 41.5245 111.81 50.6622 118.215C59.7999 124.62 70.8666 127.678 81.9965 126.874C91.1791 126.21 99.9413 122.951 107.287 117.533C109.878 115.622 109.97 111.9 107.762 109.557C105.555 107.213 101.886 107.149 99.2242 108.96C93.8882 112.591 87.661 114.776 81.156 115.246C72.7015 115.857 64.295 113.534 57.3538 108.669C50.4127 103.803 45.3615 96.6933 43.0521 88.5375C40.7427 80.3817 41.3163 71.679 44.6762 63.8968C48.0361 56.1147 53.9767 49.7291 61.4964 45.817C69.0161 41.9048 77.6548 40.7053 85.9559 42.4207C94.257 44.1362 101.713 48.6616 107.066 55.234C111.184 60.2909 113.864 66.3216 114.881 72.6949C115.389 75.8741 117.951 78.5 121.171 78.5Z" fill="#F0F0F0"></path>
<circle cx="118" cy="95" r="6" fill="#F0F0F0"></circle>
</svg><style>@media (prefers-color-scheme: light) { :root { filter: none; } }
@media (prefers-color-scheme: dark) { :root { filter: none; } }
</style></svg>